HIERARCHY
ROOT Pelvis
{
	OFFSET 0.000000 0.000000 0.000000
	CHANNELS 6 Xposition Yposition Zposition Xrotation Yrotation Zrotation
	JOINT LeftUpLeg_virtual
	{
		OFFSET 0.000000 0.000000 0.000000
		CHANNELS 3 Xrotation Yrotation Zrotation
		JOINT LeftUpLeg
		{
			OFFSET 18.735201 -5.666702 -4.541200
			CHANNELS 3 Xrotation Yrotation Zrotation
			JOINT LeftLeg
			{
				OFFSET -0.021200 -31.938179 0.493100
				CHANNELS 3 Xrotation Yrotation Zrotation
				JOINT LeftFoot
				{
					OFFSET 0.021200 -31.938179 -4.336299
					CHANNELS 3 Xrotation Yrotation Zrotation
					JOINT LeftToeBase
					{
						OFFSET 0.943001 -26.722000 15.023500
						CHANNELS 3 Xrotation Yrotation Zrotation
						End Site
						{
							OFFSET 0 0 0
						}
					}
				}
			}
		}
	}
	JOINT RightUpLeg_virtual
	{
		OFFSET 0.000000 0.000000 0.000000
		CHANNELS 3 Xrotation Yrotation Zrotation
		JOINT RightUpLeg
		{
			OFFSET -18.735201 -5.666702 -4.541200
			CHANNELS 3 Xrotation Yrotation Zrotation
			JOINT RightLeg
			{
				OFFSET 0.018946 -31.938133 0.493100
				CHANNELS 3 Xrotation Yrotation Zrotation
				JOINT RightFoot
				{
					OFFSET -0.018946 -31.938126 -4.336299
					CHANNELS 3 Xrotation Yrotation Zrotation
					JOINT RightToeBase
					{
						OFFSET -0.943001 -26.722004 15.023500
						CHANNELS 3 Xrotation Yrotation Zrotation
						End Site
						{
							OFFSET 0 0 0
						}
					}
				}
			}
		}
	}
	JOINT Hips_virtual
	{
		OFFSET 0.000000 0.000000 0.000000
		CHANNELS 3 Xrotation Yrotation Zrotation
		JOINT Hips
		{
			OFFSET -0.000000 -0.000000 -0.000000
			CHANNELS 3 Xrotation Yrotation Zrotation
			JOINT Spine
			{
				OFFSET 0.000000 10.199997 -0.299500
				CHANNELS 3 Xrotation Yrotation Zrotation
				JOINT Spine1
				{
					OFFSET 0.000000 11.900002 -1.516600
					CHANNELS 3 Xrotation Yrotation Zrotation
					JOINT Spine2
					{
						OFFSET 0.000000 13.600006 -2.842500
						CHANNELS 3 Xrotation Yrotation Zrotation
						JOINT Neck_virtual
						{
							OFFSET 0.000000 0.000000 0.000000
							CHANNELS 3 Xrotation Yrotation Zrotation
							JOINT Neck
							{
								OFFSET 0.000000 9.624100 -2.890100
								CHANNELS 3 Xrotation Yrotation Zrotation
								JOINT Head
								{
									OFFSET 0.000000 14.068802 -1.351900
									CHANNELS 3 Xrotation Yrotation Zrotation
									End Site
									{
										OFFSET 0 0 0
									}
								}
							}
						}
						JOINT LeftShoulder_virtual
						{
							OFFSET 0.000000 0.000000 0.000000
							CHANNELS 3 Xrotation Yrotation Zrotation
							JOINT LeftShoulder
							{
								OFFSET 15.263000 10.923401 -0.547700
								CHANNELS 3 Xrotation Yrotation Zrotation
								JOINT LeftArm
								{
									OFFSET 25.438599 -2.830597 -13.032500
									CHANNELS 3 Xrotation Yrotation Zrotation
									JOINT LeftForeArm
									{
										OFFSET 29.960503 0.000000 0.000000
										CHANNELS 3 Xrotation Yrotation Zrotation
										JOINT LeftHand
										{
											OFFSET 27.849251 0.000000 0.000000
											CHANNELS 3 Xrotation Yrotation Zrotation
											End Site
											{
												OFFSET 0 0 0
											}
										}
									}
								}
							}
						}
						JOINT RightShoulder_virtual
						{
							OFFSET 0.000000 0.000000 0.000000
							CHANNELS 3 Xrotation Yrotation Zrotation
							JOINT RightShoulder
							{
								OFFSET -15.263000 10.923401 -0.547700
								CHANNELS 3 Xrotation Yrotation Zrotation
								JOINT RightArm
								{
									OFFSET -25.438599 -2.830597 -13.032500
									CHANNELS 3 Xrotation Yrotation Zrotation
									JOINT RightForeArm
									{
										OFFSET -29.960503 0.000000 0.000000
										CHANNELS 3 Xrotation Yrotation Zrotation
										JOINT RightHand
										{
											OFFSET -27.849251 0.000000 0.000000
											CHANNELS 3 Xrotation Yrotation Zrotation
											End Site
											{
												OFFSET 0 0 0
											}
										}
									}
								}
							}
						}
					}
				}
			}
		}
	}
}
MOTION
Frames: 13
Frame Time: 0.03333333
1.604400 58.438335 -4.029438 0.000000 0.000000 0.000000 -178.094246 -15.492464 150.352203 -126.320852 -5.067558 52.549454 82.495482 -4.900760 -1.169784 11.261708 -4.598804 -11.534097 0.000000 0.000000 0.000000 176.554352 27.483735 172.228957 -76.095254 42.659459 -6.782870 63.385815 9.439544 7.184645 -8.192390 -0.863438 27.645829 0.000000 0.000000 0.000000 30.655262 67.296761 -19.797261 178.784354 61.817549 163.152565 9.645233 8.170405 -3.641598 6.409418 4.893679 -3.750223 0.000000 0.000000 0.000000 7.110765 9.570416 -2.498905 0.284705 5.662299 -0.478786 0.000000 0.000000 0.000000 10.166216 5.175312 -5.024201 1.456688 -8.969001 -3.708662 28.334459 -15.925095 -39.077937 20.210871 -32.557633 -0.490158 0.000000 0.000000 0.000000 7.816633 4.444480 -0.879516 3.277757 -8.481562 7.887068 37.309492 2.009543 49.812535 11.969153 52.969876 8.909037 0.000000 0.000000 0.000000 
1.605294 58.440811 -4.023602 0.000000 0.000000 0.000000 -178.128834 -15.527988 150.314254 -126.351697 -5.069397 52.534598 82.496172 -4.904657 -1.164658 11.264611 -4.605387 -11.531816 0.000000 0.000000 0.000000 176.527632 27.471144 172.235214 -76.087932 42.672918 -6.824455 63.379477 9.430557 7.180917 -8.189141 -0.865794 27.636192 0.000000 0.000000 0.000000 30.645911 67.286038 -19.791397 178.720533 61.793322 163.206291 9.625354 8.166723 -3.643926 6.396784 4.892578 -3.751335 0.000000 0.000000 0.000000 7.103445 9.567338 -2.497126 0.283667 5.661370 -0.479056 0.000000 0.000000 0.000000 10.145969 5.171521 -5.023709 1.447724 -8.984735 -3.705869 28.342698 -15.929191 -39.094592 20.217312 -32.534226 -0.507629 0.000000 0.000000 0.000000 7.803073 4.440913 -0.880916 3.276179 -8.479809 7.872104 37.334121 2.045763 49.813779 11.986676 52.986367 8.909036 0.000000 0.000000 0.000000 
1.606847 58.442558 -4.021461 0.000000 0.000000 0.000000 -178.160649 -15.563838 150.286360 -126.380780 -5.070871 52.524442 82.499014 -4.906856 -1.160721 11.269937 -4.610095 -11.529450 0.000000 0.000000 0.000000 176.505776 27.457371 172.241375 -76.082509 42.685032 -6.857753 63.371875 9.423740 7.177169 -8.186748 -0.866732 27.628125 0.000000 0.000000 0.000000 30.635403 67.273982 -19.785800 178.651753 61.777073 163.256752 9.608659 8.161916 -3.648495 6.386351 4.890888 -3.753828 0.000000 0.000000 0.000000 7.087251 9.563058 -2.495857 0.278147 5.659483 -0.479772 0.000000 0.000000 0.000000 10.130002 5.168214 -5.023517 1.441703 -8.999541 -3.702542 28.362931 -15.935815 -39.107341 20.228372 -32.509337 -0.523610 0.000000 0.000000 0.000000 7.790632 4.437646 -0.882254 3.274637 -8.478731 7.857240 37.357662 2.082773 49.811443 12.004081 53.005270 8.907566 0.000000 0.000000 0.000000 
1.606415 58.442207 -4.018799 0.000000 0.000000 0.000000 -178.189786 -15.612383 150.249245 -126.412431 -5.079268 52.512574 82.504491 -4.911210 -1.156312 11.275207 -4.616767 -11.528528 0.000000 0.000000 0.000000 176.489233 27.443343 172.244667 -76.082802 42.692374 -6.883734 63.363808 9.414190 7.173650 -8.185158 -0.869929 27.617937 0.000000 0.000000 0.000000 30.628016 67.263560 -19.780047 178.600486 61.759984 163.305301 9.593906 8.157134 -3.651049 6.377222 4.889192 -3.755124 0.000000 0.000000 0.000000 7.079132 9.560262 -2.496406 0.276491 5.658488 -0.481183 0.000000 0.000000 0.000000 10.113364 5.165245 -5.023492 1.434245 -9.015250 -3.699644 28.369911 -15.942473 -39.123665 20.233809 -32.488044 -0.541386 0.000000 0.000000 0.000000 7.781238 4.434265 -0.882605 3.275872 -8.479465 7.846943 37.391130 2.124360 49.810234 12.027126 53.020983 8.905616 0.000000 0.000000 0.000000 
1.606789 58.441303 -4.020390 0.000000 0.000000 0.000000 -178.210359 -15.651805 150.220899 -126.438003 -5.087438 52.504730 82.506800 -4.914664 -1.153255 11.280184 -4.622059 -11.528310 0.000000 0.000000 0.000000 176.473414 27.433322 172.248027 -76.080330 42.698146 -6.910141 63.351869 9.401742 7.168752 -8.185982 -0.874681 27.603590 0.000000 0.000000 0.000000 30.622535 67.250644 -19.777608 178.531569 61.753926 163.360694 9.582144 8.152019 -3.656045 6.369912 4.887389 -3.757836 0.000000 0.000000 0.000000 7.069879 9.556623 -2.497294 0.274111 5.656699 -0.482761 0.000000 0.000000 0.000000 10.097505 5.162388 -5.023810 1.426400 -9.032783 -3.697657 28.369688 -15.952814 -39.143678 20.236430 -32.472403 -0.560495 0.000000 0.000000 0.000000 7.773338 4.430749 -0.882448 3.277842 -8.482719 7.838677 37.425943 2.167001 49.812450 12.049763 53.036173 8.906609 0.000000 0.000000 0.000000 
1.604942 58.442429 -4.024525 0.000000 0.000000 0.000000 -178.221670 -15.688593 150.194494 -126.458576 -5.098914 52.498753 82.506377 -4.917699 -1.149685 11.285056 -4.627418 -11.527017 0.000000 0.000000 0.000000 176.465409 27.422839 172.253587 -76.075644 42.700700 -6.925810 63.339910 9.391818 7.165518 -8.186875 -0.878621 27.593017 0.000000 0.000000 0.000000 30.618659 67.236997 -19.776382 178.462297 61.754390 163.416934 9.574047 8.147704 -3.660464 6.364893 4.885954 -3.760132 0.000000 0.000000 0.000000 7.061921 9.553390 -2.498603 0.272083 5.654922 -0.484459 0.000000 0.000000 0.000000 10.084046 5.159956 -5.023625 1.419822 -9.051068 -3.692830 28.367673 -15.963639 -39.161067 20.238037 -32.458801 -0.578473 0.000000 0.000000 0.000000 7.767714 4.427232 -0.882290 3.280758 -8.487259 7.830253 37.460681 2.210821 49.813287 12.072713 53.051770 8.907549 0.000000 0.000000 0.000000 
1.601464 58.445435 -4.030239 0.000000 0.000000 0.000000 -178.226533 -15.731876 150.163457 -126.478219 -5.116357 52.492767 82.508569 -4.921490 -1.146772 11.292202 -4.633262 -11.527266 0.000000 0.000000 0.000000 176.460300 27.413789 172.258300 -76.071751 42.700471 -6.938224 63.328367 9.380094 7.162074 -8.188572 -0.884033 27.580548 0.000000 0.000000 0.000000 30.617720 67.227428 -19.777038 178.415893 61.751986 163.455825 9.568184 8.144566 -3.661838 6.361510 4.885051 -3.760659 0.000000 0.000000 0.000000 7.060066 9.551324 -2.500426 0.272909 5.653544 -0.486127 0.000000 0.000000 0.000000 10.071910 5.158435 -5.023678 1.413459 -9.069297 -3.687815 28.361739 -15.972727 -39.180847 20.237393 -32.444724 -0.597752 0.000000 0.000000 0.000000 7.760910 4.423683 -0.881257 3.281629 -8.495056 7.825148 37.488012 2.246197 49.816931 12.089451 53.058487 8.913193 0.000000 0.000000 0.000000 
1.596578 58.448959 -4.037861 0.000000 0.000000 0.000000 -178.221547 -15.785558 150.114266 -126.499789 -5.145403 52.483170 82.511602 -4.927675 -1.142390 11.299092 -4.641905 -11.527940 0.000000 0.000000 0.000000 176.466215 27.403571 172.258136 -76.078602 42.692494 -6.933937 63.321174 9.370518 7.162333 -8.189241 -0.890250 27.573679 0.000000 0.000000 0.000000 30.618020 67.220686 -19.777335 178.394788 61.745839 163.476534 9.564218 8.142563 -3.659211 6.359531 4.884665 -3.759013 0.000000 0.000000 0.000000 7.061587 9.550271 -2.501008 0.275169 5.652432 -0.486966 0.000000 0.000000 0.000000 10.060586 5.158029 -5.022731 1.406984 -9.086768 -3.678276 28.340359 -15.977657 -39.198753 20.230235 -32.433187 -0.616430 0.000000 0.000000 0.000000 7.755577 4.419610 -0.881800 3.282107 -8.507147 7.813081 37.512219 2.264936 49.806825 12.107044 53.051838 8.910264 0.000000 0.000000 0.000000 
1.590905 58.452812 -4.046139 0.000000 0.000000 0.000000 -178.210919 -15.844528 150.057685 -126.521195 -5.180208 52.472327 82.515556 -4.937941 -1.138452 11.306080 -4.653793 -11.532916 0.000000 0.000000 0.000000 176.476228 27.392697 172.257863 -76.086818 42.682890 -6.923223 63.320218 9.360014 7.162267 -8.188772 -0.897381 27.565590 0.000000 0.000000 0.000000 30.624649 67.220208 -19.783382 178.387889 61.728941 163.482941 9.562886 8.141853 -3.654144 6.359253 4.884986 -3.755901 0.000000 0.000000 0.000000 7.064003 9.550753 -2.502334 0.277736 5.651873 -0.488015 0.000000 0.000000 0.000000 10.052998 5.158822 -5.020303 1.403285 -9.103334 -3.661244 28.323232 -15.981162 -39.208472 20.224496 -32.420207 -0.631449 0.000000 0.000000 0.000000 7.751917 4.416023 -0.881046 3.283318 -8.520031 7.807060 37.539194 2.282466 49.803704 12.124608 53.039602 8.912319 0.000000 0.000000 0.000000 
1.585500 58.452827 -4.057667 0.000000 0.000000 0.000000 -178.193925 -15.913422 149.985968 -126.544540 -5.224054 52.458093 82.521697 -4.951585 -1.133830 11.313521 -4.668929 -11.540217 0.000000 0.000000 0.000000 176.494151 27.380743 172.253286 -76.104543 42.668755 -6.899000 63.322178 9.350190 7.163480 -8.188620 -0.905235 27.559074 0.000000 0.000000 0.000000 30.628054 67.216547 -19.786645 178.391181 61.722466 163.476917 9.564696 8.141795 -3.647706 6.360956 4.885565 -3.752093 0.000000 0.000000 0.000000 7.075737 9.550246 -2.501209 0.284657 5.650275 -0.487436 0.000000 0.000000 0.000000 10.048159 5.159907 -5.017188 1.401049 -9.122901 -3.640176 28.299239 -15.985107 -39.218939 20.216537 -32.411860 -0.645889 0.000000 0.000000 0.000000 7.750090 4.413003 -0.879906 3.285060 -8.533874 7.803360 37.566577 2.296169 49.800186 12.142295 53.020873 8.914657 0.000000 0.000000 0.000000 
1.582739 58.450100 -4.068729 0.000000 0.000000 0.000000 -178.172055 -15.992265 149.902435 -126.571301 -5.275758 52.441991 82.529736 -4.967910 -1.129318 11.321411 -4.686286 -11.550146 0.000000 0.000000 0.000000 176.515434 27.366755 172.245923 -76.129043 42.652930 -6.868155 63.330095 9.336844 7.163501 -8.187475 -0.915349 27.548323 0.000000 0.000000 0.000000 30.635523 67.220577 -19.794383 178.417382 61.701074 163.443599 9.568869 8.142246 -3.638769 6.364269 4.886317 -3.746979 0.000000 0.000000 0.000000 7.085558 9.550621 -2.498044 0.290498 5.648718 -0.485653 0.000000 0.000000 0.000000 10.046608 5.159998 -5.012518 1.400944 -9.150633 -3.612038 28.269209 -15.994401 -39.225472 20.207608 -32.413844 -0.656987 0.000000 0.000000 0.000000 7.751567 4.410557 -0.878142 3.288575 -8.547913 7.803151 37.598709 2.304475 49.793404 12.164116 52.993133 8.913916 0.000000 0.000000 0.000000 
1.580609 58.446953 -4.074871 0.000000 0.000000 0.000000 -178.138136 -16.066162 149.814626 -126.594455 -5.332778 52.426463 82.539284 -4.985566 -1.124675 11.330603 -4.704989 -11.561183 0.000000 0.000000 0.000000 176.544189 27.352046 172.239230 -76.154355 42.635168 -6.825030 63.344889 9.323942 7.162943 -8.183187 -0.924713 27.537740 0.000000 0.000000 0.000000 30.649156 67.235522 -19.808744 178.469319 61.671609 163.388042 9.576616 8.145923 -3.627190 6.369969 4.888721 -3.740453 0.000000 0.000000 0.000000 7.098383 9.556051 -2.495858 0.297616 5.649836 -0.484028 0.000000 0.000000 0.000000 10.046223 5.163322 -5.008637 1.400620 -9.168862 -3.585707 28.226332 -15.984101 -39.236257 20.188014 -32.397606 -0.673495 0.000000 0.000000 0.000000 7.754596 4.408467 -0.876859 3.291747 -8.563308 7.801366 37.623120 2.305095 49.781882 12.182497 52.957974 8.912132 0.000000 0.000000 0.000000 
1.580567 58.440449 -4.084103 0.000000 0.000000 0.000000 -178.100270 -16.135921 149.731202 -126.614960 -5.389606 52.412980 82.549899 -5.004180 -1.121287 11.340581 -4.723892 -11.574622 0.000000 0.000000 0.000000 176.577629 27.334332 172.233083 -76.181806 42.617399 -6.772935 63.363269 9.310245 7.161319 -8.179391 -0.934654 27.524959 0.000000 0.000000 0.000000 30.662919 67.246785 -19.824981 178.510737 61.655414 163.326352 9.589341 8.148771 -3.619631 6.378903 4.890804 -3.736277 0.000000 0.000000 0.000000 7.101788 9.559421 -2.490848 0.299942 5.648890 -0.480934 0.000000 0.000000 0.000000 10.051721 5.166030 -5.004909 1.404106 -9.192510 -3.558560 28.186579 -15.988122 -39.248337 20.171922 -32.397165 -0.687492 0.000000 0.000000 0.000000 7.760442 4.407485 -0.875183 3.296254 -8.577741 7.802531 37.645499 2.306691 49.774519 12.198923 52.922928 8.914350 0.000000 0.000000 0.000000 
